<svg xmlns="http://www.w3.org/2000/svg" width="19" height="19" fill="none" viewBox="0 0 19 19">
  <path fill="#18333E" d="M9.01.043c-.46.152-.371.067-4.578 4.266C2.22 6.518.355 8.41.285 8.515c-.282.42-.364 1.058-.204 1.541.241.717.813 1.14 1.633 1.207l.294.026.01 3.03c.012 2.97.016 3.033.09 3.233.278.735.742 1.188 1.422 1.389.174.052.453.059 1.986.059 1.715 0 1.79-.004 1.909-.074a.683.683 0 0 0 .193-.193c.07-.12.074-.193.074-2.48 0-1.608.015-2.406.04-2.507.064-.222.238-.449.435-.564l.175-.104h2.346l.182.112c.204.126.397.412.438.638.011.078.022 1.18.022 2.454 0 2.506-.007 2.41.205 2.607l.1.092 1.786.012c1.195.007 1.852-.004 1.982-.03.513-.108 1.107-.56 1.34-1.021.26-.52.246-.308.26-3.642l.012-3.015.304-.026c.746-.063 1.236-.39 1.544-1.021.13-.275.134-.286.134-.743 0-.46 0-.467-.14-.76-.142-.298-.146-.301-4.215-4.37C10.57.29 10.57.29 10.272.15 9.99.017 9.952.01 9.567.002c-.264-.008-.46.007-.557.04Z"/>
</svg>
