<svg xmlns="http://www.w3.org/2000/svg" width="20" height="20" fill="none" viewBox="0 0 20 20">
  <path fill="#FF7F5C" d="M6 18.333h2.167c2.666 0 4.333-1.666 4.333-4.333v-3.375H7.292A.63.63 0 0 1 6.667 10a.63.63 0 0 1 .625-.625H12.5V6c0-2.667-1.667-4.333-4.333-4.333H6.008C3.342 1.667 1.675 3.333 1.675 6v8C1.667 16.667 3.333 18.333 6 18.333Zm10.2-7.708-1.725 1.725a.618.618 0 0 0-.184.442c0 .158.059.325.184.441a.629.629 0 0 0 .883 0l2.792-2.791a.629.629 0 0 0 0-.884l-2.792-2.791a.629.629 0 0 0-.883 0 .629.629 0 0 0 0 .883L16.2 9.375h-3.7v1.25h3.7Z"/>
</svg>
