<svg xmlns="http://www.w3.org/2000/svg" width="22" height="22" fill="none" viewBox="0 0 22 22">
  <path fill="#18333E" d="m18.507 12.888-1.036-1.723c-.229-.376-.43-1.1-.43-1.54V7.911c0-3.328-2.705-6.032-6.023-6.032-3.327.01-6.032 2.704-6.032 6.032v1.705c0 .44-.201 1.164-.421 1.54l-1.036 1.723c-.394.67-.486 1.43-.238 2.09.247.67.806 1.201 1.54 1.44.99.33 1.989.568 3.006.742.101.018.202.027.303.046l.403.055c.238.036.477.064.724.082a18.504 18.504 0 0 0 3.474 0c.211-.018.422-.037.624-.064.165-.018.33-.037.495-.064a19.308 19.308 0 0 0 3.337-.797A2.429 2.429 0 0 0 18.7 14.96a2.392 2.392 0 0 0-.193-2.072Zm-6.82-3.721a.696.696 0 1 1-1.393 0V6.325a.696.696 0 1 1 1.393 0v2.842Zm1.907 9.176A2.763 2.763 0 0 1 11 20.167c-.724 0-1.44-.294-1.943-.816a2.531 2.531 0 0 1-.642-1.018c.12.019.238.028.367.046a18.148 18.148 0 0 0 2.236.147c.523 0 1.045-.028 1.559-.073.192-.019.385-.028.568-.055.147-.019.293-.037.45-.055Z"/>
</svg>
